Coordinates
version=1
nRows=10
nColumns=34
inDegrees=yes

Units are S.I. units (second, meters, Newtons, ...)
If the header above contains a line with 'inDegrees', this indicates whether rotational values are in degrees (yes) or radians (no).

endheader
time	pelvis_tilt	pelvis_list	pelvis_rotation	pelvis_tx	pelvis_ty	pelvis_tz	hip_flexion_r	hip_adduction_r	hip_rotation_r	knee_angle_r	ankle_angle_r	subtalar_angle_r	mtp_angle_r	hip_flexion_l	hip_adduction_l	hip_rotation_l	knee_angle_l	ankle_angle_l	subtalar_angle_l	mtp_angle_l	lumbar_extension	lumbar_bending	lumbar_rotation	arm_flex_r	arm_add_r	arm_rot_r	elbow_flex_r	pro_sup_r	arm_flex_l	arm_add_l	arm_rot_l	elbow_flex_l	pro_sup_l
      2.50000000	     -2.62305322	     -6.24186681	     -4.49377579	      0.03219181	      0.84205312	     -0.16010351	     20.82338545	      1.24243605	     -6.39820172	      3.89252789	     -3.76532624	     -4.72630790	      0.00000000	      0.47480173	     -0.83363659	      4.63104865	      3.88966581	      7.17405032	     -4.09464838	      0.00000000	     -8.42040143	      1.89273687	     -4.66007883	     52.21998143	     16.62949260	     65.71916376	    130.49351227	    110.00555215	     34.07726296	     13.69639863	     51.01632224	    138.87522598	     95.58803091
      2.51666670	     -2.19786357	     -6.33582637	     -4.43891633	      0.03248732	      0.84391850	     -0.16131834	     21.29082332	      1.32253639	     -6.30401094	      3.91838025	     -4.12337133	     -4.62141072	      0.00000000	      0.39066510	     -0.82823008	      4.86367526	      4.62086257	      7.26185015	     -4.32954862	      0.00000000	     -8.82238836	      2.03433277	     -4.66013410	     52.31788449	     16.51002851	     65.79798749	    130.38129719	    110.01454310	     34.28409004	     13.46727594	     51.02301225	    138.93330495	     95.63311915
      2.53333330	     -1.76873452	     -6.46856263	     -4.44012223	      0.03219161	      0.84387652	     -0.16145208	     21.63777836	      1.48502131	     -6.45856167	      3.76090098	     -4.71626535	     -4.73625607	      0.00000000	      0.48477635	     -0.85628521	      5.28299832	      5.61464258	      7.67398536	     -5.08318006	      0.00000000	     -9.37103002	      2.10816430	     -4.65053660	     52.75294385	     16.53058541	     66.01219131	    130.20535784	    110.04782901	     34.84590778	     13.18889850	     50.76437413	    139.10854018	     95.71222767
      2.55000000	     -1.33535984	     -6.54232002	     -4.28669299	      0.03128665	      0.84459955	     -0.16319535	     21.99664209	      1.47744360	     -6.55174944	      3.61016507	     -5.50384753	     -4.99965846	      0.00000000	      0.64386027	     -0.73552387	      6.02123233	      6.59496893	      7.61048831	     -6.09938574	      0.00000000	    -10.12095931	      2.28816604	     -4.79332999	     53.15784944	     16.49315292	     66.32709921	    130.07696418	    110.12538963	     35.49212248	     12.97073981	     50.20067161	    139.55709160	     95.83690923
      2.56666670	     -0.89757465	     -6.45715230	     -4.33185480	      0.03059626	      0.84613309	     -0.16471633	     22.35830201	      1.38196929	     -6.87007214	      3.58055108	     -6.33830679	     -5.00442286	      0.00000000	      0.96807557	     -0.45188694	      6.14845072	      7.97192463	      7.67773932	     -6.76417404	      0.00000000	    -10.85254482	      2.11834416	     -4.80145996	     53.27267246	     16.40033843	     66.40891788	    129.94240863	    110.16659979	     35.98947686	     12.84622581	     49.94470000	    139.74730459	     95.89025051
      2.58333330	     -0.36154175	     -6.45715094	     -4.36756024	      0.03347972	      0.84364276	     -0.16469603	     22.59603957	      1.41820136	     -6.75294556	      3.79703210	     -6.58289758	     -4.94997240	      0.00000000	      1.15066144	     -0.27362770	      6.35117195	      9.46905120	      7.75168516	     -7.00393693	      0.00000000	    -11.48437073	      2.13517148	     -4.83110330	     53.15441537	     16.38269843	     66.54836917	    129.89539450	    110.18291744	     35.70933989	     12.93745851	     50.16361025	    139.69965404	     95.91828613
      2.60000000	      0.08441245	     -6.54850117	     -4.07272049	      0.03383182	      0.84120513	     -0.16611764	     22.77337738	      1.37997025	     -6.99795359	      3.64217427	     -7.14825535	     -5.67869883	      0.00000000	      1.70203275	     -0.03095358	      7.43912097	     11.35759741	      8.22002289	     -9.07021912	      0.00000000	    -12.25127690	      2.39053723	     -5.10482759	     53.83204847	     16.52239085	     67.44742261	    130.23399171	    110.31491276	     36.22624778	     13.45957272	     52.62343188	    140.12082598	     96.26108369
      2.61666670	      0.60346236	     -6.58176047	     -4.26152219	      0.03249591	      0.83866743	     -0.16630007	     23.05949552	      1.49223159	     -6.77111668	      3.95713401	     -7.23069703	     -5.70315027	      0.00000000	      2.11389784	      0.19812072	      7.57675563	     13.17327600	      8.98218533	     -9.82248018	      0.00000000	    -12.97920984	      2.46014024	     -5.07041096	     54.09485424	     16.64287495	     67.41851099	    130.19274957	    110.34623191	     36.73340107	     13.47748301	     52.66049566	    139.89315480	     96.33010666
      2.63333330	      1.16381041	     -6.54024845	     -4.31949926	      0.03216509	      0.83732824	     -0.16634820	     23.34553659	      1.49071805	     -6.57595310	      4.22280286	     -7.44294272	     -5.82815086	      0.00000000	      2.61561947	      0.51909693	      7.93750073	     15.13847547	      9.79598666	    -10.58130105	      0.00000000	    -13.75492161	      2.42299682	     -5.05163527	     54.38712670	     16.55292450	     67.37936383	    130.17901253	    110.38875899	     37.33268248	     13.36852165	     52.61159017	    139.78855655	     96.39691798
      2.65000000	      1.81917052	     -6.64308315	     -4.20077886	      0.03394658	      0.83452992	     -0.16739127	     23.46289047	      1.55343651	     -6.11306976	      4.85819105	     -7.78393518	     -6.80526473	      0.00000000	      2.94061881	      0.74804955	      8.64530820	     17.21193698	     10.28573484	    -11.80824645	      0.00000000	    -14.48311459	      2.52897783	     -5.29620407	     54.83834984	     16.64992303	     67.64318958	    130.37054058	    110.52774277	     37.58308498	     13.95655713	     54.99448677	    139.51329895	     96.73373028
